<?xml version="1.0" encoding="utf-8"?>
<!-- Generator: Adobe Illustrator 14.0.0, SVG Export Plug-In . SVG Version: 6.00 Build 43363)  -->
<!DOCTYPE svg PUBLIC "-//W3C//DTD SVG 1.1//EN" "http://www.w3.org/Graphics/SVG/1.1/DTD/svg11.dtd">
<svg version="1.1" xmlns="http://www.w3.org/2000/svg" xmlns:xlink="http://www.w3.org/1999/xlink" x="0px" y="0px" width="248.5px"
	 height="293px" viewBox="0 0 248.5 293" style="enable-background:new 0 0 248.5 293;" xml:space="preserve">
<style type="text/css">
<![CDATA[
	.st0{fill:#7DCBF8;}
	.st1{fill-rule:evenodd;clip-rule:evenodd;fill:#ED1C24;}
	.st2{fill:#2E83B3;}
	.st3{fill:#DDDDDD;}
]]>
</style>
<g id="Layer_2">
	<g>
		<g>
			<g>
				<path class="st1" d="M87.9,46.2l59.9,12.5c6.8-19.1,13.1-37.9,19.3-58.7l20.6,58.7l59.9-12.5c0,0.2-41.2,45.6-41.2,45.6
					s41.2,46,41.2,46.2l-59.9-12.5c-6.4,17.9-20.6,58.7-20.6,58.7l-19.3-58.7l-59.9,12.5c0-0.2,41.2-46.2,41.2-46.2"/>
			</g>
		</g>
	</g>
</g>
<g id="Layer_1">
	<g>
		<path class="st3" d="M186,186.2c0,1.6-1.5,3.9-4.4,6.8c-25.1,24.5-45.6,36.8-61.6,36.8c-2.9,0-6.3,0-10,0
			c-4.5,8.2-12.6,17.8-24.2,28.8c-11.6,11.1-21.7,19.3-30.4,24.7c-8.7,5.4-17.7,8.1-27,8.1c-7.2,0-13.5-3.1-18.8-9.2
			c-5.3-6.1-8-12.8-8-20c0-5.3,1.3-10.9,4-16.8L52,143l46-3.6c-10.7,14.1-21.1,30.9-31.2,50.4c-12.3,23.7-18.4,41.9-18.4,54.4
			c0,2.7,0.9,6,2.6,10c1.7,4,3.7,6,5.8,6c15.5,0,30.8-11.5,46-34.4c-8.3-8.3-12.4-17.6-12.4-28c0-13.9,4.7-29.2,14-46
			c10.4-18.7,22.1-28,35.2-28c11.5,0,17.2,7.9,17.2,23.7c0,19.6-13.2,44.6-39.6,75.1h4c9.3,0,22.1-6.5,38.2-19.6
			c16.1-13.1,24.1-19.6,23.8-19.6C185.1,183.4,186,184.3,186,186.2z M144,163.4c0-4.8-2.5-7.2-7.6-7.2c-9.3,0-17.7,4.7-25.2,14
			c-7.5,9.3-11.2,18.7-11.2,28c0,8.3,2.8,15.3,8.4,21.2C132.2,192.2,144,173.5,144,163.4z"/>
	</g>
	<g>
		<path class="st0" d="M184.8,186.6c0,1.5-1.4,3.7-4.2,6.5c-23.8,23.3-43.3,35-58.5,35c-2.8,0-6,0-9.5,0c-4.3,7.8-12,16.9-23,27.4
			c-11,10.5-20.7,18.3-28.9,23.4c-8.2,5.1-16.8,7.7-25.7,7.7c-6.8,0-12.8-2.9-17.9-8.7c-5.1-5.8-7.6-12.2-7.6-19
			c0-5.1,1.3-10.4,3.8-16l44.1-97.3l43.7-3.4c-10.1,13.4-20,29.4-29.6,47.9c-11.7,22.6-17.5,39.8-17.5,51.7c0,2.5,0.8,5.7,2.5,9.5
			c1.6,3.8,3.5,5.7,5.5,5.7c14.7,0,29.3-10.9,43.7-32.7c-7.9-7.8-11.8-16.7-11.8-26.6c0-13.2,4.4-27.7,13.3-43.7
			c9.9-17.7,21-26.6,33.4-26.6c10.9,0,16.3,7.5,16.3,22.5c0,18.6-12.5,42.4-37.6,71.4h3.8c8.9,0,21-6.2,36.3-18.6
			c15.3-12.4,22.9-18.6,22.6-18.6C183.9,184,184.8,184.9,184.8,186.6z M144.9,165c0-4.6-2.4-6.8-7.2-6.8c-8.9,0-16.9,4.4-23.9,13.3
			c-7.1,8.9-10.6,17.7-10.6,26.6c0,7.9,2.7,14.6,8,20.1C133.6,192.3,144.9,174.6,144.9,165z"/>
	</g>
	<g>
		<path class="st2" d="M182.5,187.1c0,1.4-1.3,3.5-4,6.1c-22.6,22.1-41,33.1-55.4,33.1c-2.6,0-5.6,0-9,0c-4.1,7.3-11.3,16-21.8,25.9
			c-10.4,10-19.6,17.4-27.4,22.2c-7.8,4.9-15.9,7.3-24.3,7.3c-6.5,0-12.1-2.8-16.9-8.3c-4.8-5.5-7.2-11.5-7.2-18
			c0-4.8,1.2-9.8,3.6-15.1l41.8-92.2l41.4-3.2c-9.6,12.7-19,27.8-28.1,45.4c-11,21.4-16.6,37.7-16.6,49c0,2.4,0.8,5.4,2.3,9
			c1.6,3.6,3.3,5.4,5.2,5.4c13.9,0,27.7-10.3,41.4-31c-7.4-7.4-11.2-15.8-11.2-25.2c0-12.5,4.2-26.3,12.6-41.4
			c9.4-16.8,19.9-25.2,31.7-25.2c10.3,0,15.5,7.1,15.5,21.3c0,17.6-11.9,40.1-35.6,67.6h3.6c8.4,0,19.9-5.9,34.4-17.6
			c14.5-11.8,21.7-17.6,21.4-17.6C181.7,184.6,182.5,185.4,182.5,187.1z M144.7,166.6c0-4.3-2.3-6.5-6.8-6.5
			c-8.4,0-16,4.2-22.7,12.6c-6.7,8.4-10.1,16.8-10.1,25.2c0,7.4,2.5,13.8,7.6,19.1C134,192.5,144.7,175.7,144.7,166.6z"/>
	</g>
</g>
</svg>
