<?xml version="1.0" encoding="utf-8"?>
<!-- Generator: Adobe Illustrator 14.0.0, SVG Export Plug-In . SVG Version: 6.00 Build 43363)  -->
<!DOCTYPE svg PUBLIC "-//W3C//DTD SVG 1.1//EN" "http://www.w3.org/Graphics/SVG/1.1/DTD/svg11.dtd">
<svg version="1.1" xmlns="http://www.w3.org/2000/svg" xmlns:xlink="http://www.w3.org/1999/xlink" x="0px" y="0px" width="11.2px"
	 height="13.2px" viewBox="0 0 11.2 13.2" style="enable-background:new 0 0 11.2 13.2;" xml:space="preserve">
<style type="text/css">
<![CDATA[
	.st0{fill:#7DCBF8;}
	.st1{fill-rule:evenodd;clip-rule:evenodd;fill:#ED1C24;}
	.st2{fill:#2E83B3;}
	.st3{fill:#DDDDDD;}
]]>
</style>
<g id="Layer_2">
	<g>
		<path class="st1" d="M4,2.1l2.7,0.6C7,1.8,7.3,0.9,7.5,0l0.9,2.7l2.7-0.6c0,0-1.9,2.1-1.9,2.1s1.9,2.1,1.9,2.1L8.5,5.7
			C8.2,6.5,7.5,8.3,7.5,8.3L6.7,5.7L4,6.2c0,0,1.9-2.1,1.9-2.1"/>
	</g>
</g>
<g id="Layer_1">
	<g>
		<path class="st3" d="M8.4,8.4c0,0.1-0.1,0.2-0.2,0.3c-1.1,1.1-2.1,1.7-2.8,1.7c-0.1,0-0.3,0-0.5,0c-0.2,0.4-0.6,0.8-1.1,1.3
			c-0.5,0.5-1,0.9-1.4,1.1c-0.4,0.2-0.8,0.4-1.2,0.4c-0.3,0-0.6-0.1-0.9-0.4c-0.2-0.3-0.4-0.6-0.4-0.9c0-0.2,0.1-0.5,0.2-0.8
			l2.1-4.6l2.1-0.2C3.9,6.9,3.5,7.7,3,8.6C2.5,9.7,2.2,10.5,2.2,11c0,0.1,0,0.3,0.1,0.5c0.1,0.2,0.2,0.3,0.3,0.3
			c0.7,0,1.4-0.5,2.1-1.6C4.3,9.8,4.1,9.4,4.1,8.9c0-0.6,0.2-1.3,0.6-2.1c0.5-0.8,1-1.3,1.6-1.3c0.5,0,0.8,0.4,0.8,1.1
			c0,0.9-0.6,2-1.8,3.4h0.2c0.4,0,1-0.3,1.7-0.9c0.7-0.6,1.1-0.9,1.1-0.9C8.4,8.3,8.4,8.3,8.4,8.4z M6.5,7.4c0-0.2-0.1-0.3-0.3-0.3
			C5.7,7.1,5.4,7.3,5,7.7C4.7,8.1,4.5,8.5,4.5,9c0,0.4,0.1,0.7,0.4,1C6,8.7,6.5,7.8,6.5,7.4z"/>
	</g>
	<g>
		<path class="st0" d="M8.3,8.4c0,0.1-0.1,0.2-0.2,0.3c-1.1,1.1-2,1.6-2.6,1.6c-0.1,0-0.3,0-0.4,0c-0.2,0.4-0.5,0.8-1,1.2
			c-0.5,0.5-0.9,0.8-1.3,1.1S2,13,1.6,13c-0.3,0-0.6-0.1-0.8-0.4c-0.2-0.3-0.3-0.6-0.3-0.9c0-0.2,0.1-0.5,0.2-0.7l2-4.4l2-0.2
			C4.1,7,3.7,7.8,3.2,8.6c-0.5,1-0.8,1.8-0.8,2.3c0,0.1,0,0.3,0.1,0.4c0.1,0.2,0.2,0.3,0.2,0.3c0.7,0,1.3-0.5,2-1.5
			C4.4,9.8,4.2,9.4,4.2,8.9c0-0.6,0.2-1.3,0.6-2c0.4-0.8,1-1.2,1.5-1.2c0.5,0,0.7,0.3,0.7,1c0,0.8-0.6,1.9-1.7,3.2h0.2
			C6,10,6.5,9.7,7.2,9.2c0.7-0.6,1-0.8,1-0.8C8.3,8.3,8.3,8.4,8.3,8.4z M6.5,7.5c0-0.2-0.1-0.3-0.3-0.3c-0.4,0-0.8,0.2-1.1,0.6
			C4.8,8.1,4.7,8.5,4.7,9c0,0.4,0.1,0.7,0.4,0.9C6,8.7,6.5,7.9,6.5,7.5z"/>
	</g>
	<g>
		<path class="st2" d="M8.2,8.5c0,0.1-0.1,0.2-0.2,0.3c-1,1-1.9,1.5-2.5,1.5c-0.1,0-0.3,0-0.4,0c-0.2,0.3-0.5,0.7-1,1.2
			c-0.5,0.5-0.9,0.8-1.2,1c-0.4,0.2-0.7,0.3-1.1,0.3c-0.3,0-0.5-0.1-0.8-0.4s-0.3-0.5-0.3-0.8c0-0.2,0.1-0.4,0.2-0.7l1.9-4.2
			l1.9-0.1C4.2,7.1,3.8,7.8,3.4,8.6c-0.5,1-0.7,1.7-0.7,2.2c0,0.1,0,0.2,0.1,0.4c0.1,0.2,0.2,0.2,0.2,0.2c0.6,0,1.3-0.5,1.9-1.4
			C4.5,9.7,4.4,9.4,4.4,8.9c0-0.6,0.2-1.2,0.6-1.9c0.4-0.8,0.9-1.1,1.4-1.1c0.5,0,0.7,0.3,0.7,1c0,0.8-0.5,1.8-1.6,3.1h0.2
			c0.4,0,0.9-0.3,1.6-0.8c0.7-0.5,1-0.8,1-0.8C8.2,8.3,8.2,8.4,8.2,8.5z M6.5,7.5c0-0.2-0.1-0.3-0.3-0.3c-0.4,0-0.7,0.2-1,0.6
			C4.9,8.2,4.7,8.6,4.7,8.9c0,0.3,0.1,0.6,0.3,0.9C6.1,8.7,6.5,7.9,6.5,7.5z"/>
	</g>
</g>
</svg>
